<svg width="120" height="120" viewBox="0 0 120 120" xmlns="http://www.w3.org/2000/svg">
  <defs>
    <linearGradient id="morganGradient" x1="0%" y1="0%" x2="100%" y2="100%">
      <stop offset="0%" style="stop-color:#a8edea;stop-opacity:1" />
      <stop offset="100%" style="stop-color:#fed6e3;stop-opacity:1" />
    </linearGradient>
  </defs>
  
  <!-- Background circle -->
  <circle cx="60" cy="60" r="55" fill="url(#morganGradient)"/>
  
  <!-- Book/documentation -->
  <rect x="35" y="35" width="50" height="35" fill="#fff" rx="3"/>
  <rect x="38" y="38" width="44" height="29" fill="none" stroke="#a8edea" stroke-width="1"/>
  
  <!-- Book pages/lines -->
  <line x1="42" y1="45" x2="78" y2="45" stroke="#fed6e3" stroke-width="2"/>
  <line x1="42" y1="50" x2="75" y2="50" stroke="#fed6e3" stroke-width="2"/>
  <line x1="42" y1="55" x2="80" y2="55" stroke="#fed6e3" stroke-width="2"/>
  <line x1="42" y1="60" x2="72" y2="60" stroke="#fed6e3" stroke-width="2"/>
  
  <!-- Bookmark -->
  <rect x="82" y="35" width="4" height="20" fill="#ff6b6b"/>
  <path d="M82 55 L84 52 L86 55 L86 35 L82 35 Z" fill="#ff6b6b"/>
  
  <!-- Pen/writing tool -->
  <line x1="25" y1="25" x2="35" y2="35" stroke="#667eea" stroke-width="3"/>
  <circle cx="22" cy="22" r="3" fill="#667eea"/>
  
  <!-- Knowledge emoji -->
  <text x="60" y="90" font-family="Arial, sans-serif" font-size="25" text-anchor="middle" fill="#667eea">📚</text>
  
  <!-- Lightbulb for ideas -->
  <circle cx="90" cy="30" r="6" fill="#fff" stroke="#fed6e3" stroke-width="2"/>
  <rect x="87" y="35" width="6" height="3" fill="#fed6e3"/>
  <line x1="89" y1="24" x2="89" y2="20" stroke="#fed6e3" stroke-width="1"/>
  <line x1="83" y1="26" x2="80" y2="23" stroke="#fed6e3" stroke-width="1"/>
  <line x1="95" y1="26" x2="98" y2="23" stroke="#fed6e3" stroke-width="1"/>
</svg>
