<svg width="120" height="120" viewBox="0 0 120 120" xmlns="http://www.w3.org/2000/svg">
  <defs>
    <linearGradient id="tessGradient" x1="0%" y1="0%" x2="100%" y2="100%">
      <stop offset="0%" style="stop-color:#f093fb;stop-opacity:1" />
      <stop offset="100%" style="stop-color:#f5576c;stop-opacity:1" />
    </linearGradient>
  </defs>
  
  <!-- Background circle -->
  <circle cx="60" cy="60" r="55" fill="url(#tessGradient)"/>
  
  <!-- Test tube/lab equipment -->
  <rect x="40" y="25" width="6" height="35" fill="#fff" rx="3"/>
  <rect x="42" y="27" width="2" height="25" fill="#f093fb"/>
  <circle cx="43" cy="22" r="4" fill="#fff"/>
  
  <rect x="55" y="30" width="6" height="30" fill="#fff" rx="3"/>
  <rect x="57" y="32" width="2" height="20" fill="#f5576c"/>
  <circle cx="58" cy="27" r="4" fill="#fff"/>
  
  <rect x="70" y="28" width="6" height="32" fill="#fff" rx="3"/>
  <rect x="72" y="30" width="2" height="22" fill="#ff6b6b"/>
  <circle cx="73" cy="25" r="4" fill="#fff"/>
  
  <!-- Microscope base -->
  <rect x="35" y="60" width="50" height="8" fill="#fff" rx="2"/>
  
  <!-- Bug/testing emoji -->
  <text x="60" y="85" font-family="Arial, sans-serif" font-size="25" text-anchor="middle" fill="#fff">🧪</text>
  
  <!-- Magnifying glass for finding bugs -->
  <circle cx="25" cy="35" r="8" fill="none" stroke="#fff" stroke-width="2"/>
  <line x1="31" y1="41" x2="38" y2="48" stroke="#fff" stroke-width="2"/>
  
  <!-- DNA helix pattern -->
  <path d="M85 20 Q90 30 85 40 Q80 50 85 60" stroke="#fff" stroke-width="2" fill="none"/>
  <path d="M90 20 Q85 30 90 40 Q95 50 90 60" stroke="#fff" stroke-width="2" fill="none"/>
</svg>
